<svg xmlns="http://www.w3.org/2000/svg" xmlns:xlink="http://www.w3.org/1999/xlink" xml:space="preserve" style="shape-rendering:geometricPrecision;text-rendering:geometricPrecision;image-rendering:optimizeQuality;" viewBox="0 0 50 50" x="0px" y="0px" fill-rule="evenodd" clip-rule="evenodd"><defs><style type="text/css">
   
    .fil0 {fill:black}
   
  </style></defs><g><path class="fil0" d="M39.7208 5.54886c4.11263,0 7.42211,1.33111 7.44809,7.16817 0.0177167,3.73822 -0.846857,5.76973 -1.95002,7.09966 -0.608273,0.73347 -1.76222,0.408665 -2.9705,0.527957 0.0484256,0.229136 -1.15158,2.85238 -3.4453,2.90672 -0.900007,0.02126 -1.57206,-0.348428 -2.05159,-0.849219l-1.90277 -0.0389767 -0.01063 0.0177167 9.60952 3.72286 3.29058 -9.42173 7.49415 -1.25552c4.48468,0.533862 6.51383,7.47407 3.84334,9.60952l8.64928 8.64928 0.209057 3.05435 -7.87211 7.4977 -5.97052 0.355515 -11.8855 6.18076 -2.55356 -3.96263 6.43233 -9.76189 -7.93707 8.27487 -2.63034 2.41065 -3.25396 -2.31144 -1.69726 -7.68077 -0.320081 -3.95082c-4.12917,0.427562 -6.22918,-3.52326 -3.73704,-9.28944l6.81501 -2.70829c-0.503154,-0.621265 -0.726384,-2.63624 -0.910637,-3.64255 -1.15158,-0.119292 -0.989772,-0.761817 -0.174805,-0.955519l-0.344885 -1.88505c-0.672053,-0.00118111 -0.706305,-0.483075 -0.137009,-0.747644l-0.0165356 -0.0921267c-0.788983,-0.00236222 -0.614178,-0.562209 -0.0354333,-0.791345 0.0909456,-0.37205 0.312995,-0.543311 0.553941,-0.667328 0.120473,-3.5268 3.30475,-7.46344 7.46226,-7.46344zm2.92916 46.0551l19.1659 -5.68469 1.81064 5.3776 -0.673234 14.2761 4.46106 5.9717 5.14256 16.3088 1.65828 3.18664c0.578745,0.908275 0.431106,2.11891 -0.442917,3.26932l-5.74138 0.141733c-0.656698,-0.794888 -0.525595,-1.89332 0.57402,-3.29294l-0.865755 -3.73586c-1.09843,0.663785 -2.37758,1.2071 -3.11223,-1.09489l-1.01576 -3.67562 -0.0720478 -2.71065 -4.78114 -4.78823 -5.06224 -0.484256 -12.0202 -17.2171 0.974417 -5.84768zm14.6151 -20.1403c2.08584,0 4.33468,3.19963 3.62247,6.53982l-4.80949 -2.55474 -0.610635 0.845676 2.30199 2.11419 -0.470082 1.97364 -4.85319 1.88742c-3.23034,-2.53821 -1.72088,-10.806 4.81894,-10.806zm-20.7958 -9.40047c-0.468901,-0.643706 -0.633076,-1.39489 -0.676777,-1.82127 -0.06378,-0.615359 -0.368507,-0.731108 -0.70158,-1.0819 -0.28701,-0.285829 -0.562209,-0.566934 -0.823235,-0.851582 0.0484256,1.23544 0.0885834,3.54215 0.578745,3.72168l1.62285 0.0330711zm-2.07639 -0.04252c-0.370869,-0.598824 -0.401578,-2.24766 -0.462996,-3.81735 -0.385042,0 -0.77599,-0.00944889 -1.17284,-0.0295278 0.243309,1.33229 0.32953,3.81853 1.63584,3.84688zm-2.09411 -4.49649c-0.373231,0.17008 -0.468901,0.217325 0.0519689,0.284648l-0.0519689 -0.284648zm0.396854 0.312995c0.401578,0.0200789 0.798431,0.0307089 1.1882,0.03189 -0.737014,-0.883472 -1.3004,-1.85316 -1.52482,-3.17955 -0.0755911,0.0271656 -0.150001,0.05315 -0.224411,0.0814967l0.561028 3.06617zm-0.622446 -3.40042c0.0791345,-0.0283467 0.158269,-0.0566934 0.237403,-0.0838589 -0.0200789,-0.168899 -0.0354333,-0.343703 -0.0460634,-0.524414 -0.0874023,0.0307089 -0.174805,0.0625989 -0.262207,0.0944889l0.0708667 0.513784zm10.5284 -0.781896l-0.01063 0.214962c0.310632,0.0472445 0.615359,0.0980323 0.915362,0.151182l0.0129922 -0.0885834c-0.305908,-0.105119 -0.611816,-0.198427 -0.917724,-0.277561zm-0.0259845 0.550398l-0.0862212 1.86852c0.409846,-0.303546 0.762998,-0.823235 0.955519,-1.72442 -0.284648,-0.0507878 -0.575201,-0.0992134 -0.869298,-0.144096zm-0.429925 2.07167l0.0980323 -2.12128c-2.4827,-0.356696 -5.2276,-0.477169 -7.73392,-0.0248033 -0.0838589,1.15985 0.268112,2.50159 0.768904,3.7016 1.92167,-0.107481 3.74767,-0.451185 5.46855,-1.01339l0.00944889 -0.292916c0.405121,-0.0200789 0.91418,-0.0307089 1.38899,-0.249215zm0.113387 -2.45671l0.0118111 -0.248033c-2.50159,-0.58465 -5.03626,-0.395672 -7.67604,-0.0271656 -0.0177167,0.0779534 -0.0330711,0.158269 -0.0460634,0.239766 2.50514,-0.434649 5.23351,-0.317719 7.7103,0.0354333zm-1.52245 3.35199c-0.918905,0.295278 -1.85316,0.524414 -2.82168,0.694494 0.0389767,0.99922 0.07441,1.77285 0.124017,2.37049 0.901188,0.0307089 1.79529,-0.230317 2.62207,-0.59528l0.0755911 -2.4697zm-3.15357 0.748825c-0.696856,0.111024 -1.41852,0.19134 -2.1638,0.237403 0.259845,0.581107 0.548036,1.12087 0.831503,1.57915 0.477169,0.270475 0.963787,0.418114 1.45159,0.474807 -0.0472445,-0.589375 -0.0814967,-1.33702 -0.119292,-2.29136z"/></g><text x="0" y="115" fill="#000000" font-size="5px" font-weight="bold" font-family="'Helvetica Neue', Helvetica, Arial-Unicode, Arial, Sans-serif">Created by Rfourtytwo</text><text x="0" y="120" fill="#000000" font-size="5px" font-weight="bold" font-family="'Helvetica Neue', Helvetica, Arial-Unicode, Arial, Sans-serif">from the Noun Project</text></svg>